<?xml version="1.0" encoding="UTF-8" standalone="no"?>
<!-- Created with Inkscape (http://www.inkscape.org/) -->

<svg
   width="292.33838"
   height="226.52129"
   viewBox="0 0 77.347864 59.933759"
   version="1.1"
   id="svg24"
   xml:space="preserve"
   xmlns="http://www.w3.org/2000/svg"
   xmlns:svg="http://www.w3.org/2000/svg"><defs
     id="defs21"><filter
       style="color-interpolation-filters:sRGB"
       id="filter801"
       x="-0.052095816"
       y="-0.06962958"
       width="1.1041915"
       height="1.1392592"><feFlood
         flood-opacity="0.329412"
         flood-color="rgb(0,0,0)"
         result="flood"
         id="feFlood791" /><feComposite
         in="flood"
         in2="SourceGraphic"
         operator="in"
         result="composite1"
         id="feComposite793" /><feGaussianBlur
         in="composite1"
         stdDeviation="1"
         result="blur"
         id="feGaussianBlur795" /><feOffset
         dx="0"
         dy="0"
         result="offset"
         id="feOffset797" /><feComposite
         in="SourceGraphic"
         in2="offset"
         operator="over"
         result="composite2"
         id="feComposite799" /></filter></defs><g
     id="layer1"
     transform="translate(-17.420799,31.171137)"><text
       xml:space="preserve"
       style="font-size:10.5833px;line-height:1.25;font-family:Vazir;-inkscape-font-specification:Vazir;direction:rtl;stroke-width:0.264583"
       x="99.111977"
       y="0"
       id="text5423"><tspan
         id="tspan5421"
         style="stroke-width:0.264583"
         x="99.111977"
         y="0" /></text><path
       id="path463"
       style="fill:#374151;fill-opacity:1;stroke:none;stroke-width:0.999999"
       d="m 25.672105,17.383471 c -0.235679,0.03174 -0.402531,0.04078 -0.656291,0.0956 -0.253389,0.05474 -0.494096,0.12221 -0.650606,0.187585 -0.06317,0.02639 -0.105395,0.05712 -0.130224,0.07648 -0.0077,0.05143 -0.01892,0.139123 -0.01602,0.249597 0.0047,0.180356 0.03101,0.39213 0.03101,0.621151 v 5.507674 c 0,1.287303 -0.190371,2.762639 0.224792,3.589962 0.382224,0.761692 1.086665,1.02715 1.876888,0.954981 0.300882,-0.02748 0.584559,-0.158356 0.861446,-0.290939 -0.562523,-0.116363 -1.16315,-0.466037 -1.422135,-1.140498 -0.27105,-0.705524 -0.118856,-1.389747 -0.118856,-1.79679 V 22.19196 Z m -1.437121,0.359668 c 0.0048,-0.03199 0.0083,-0.05292 0.0052,-0.04702 -0.03936,0.0788 -0.04186,0.07563 -0.0052,0.04702 z m 38.50411,1.893425 -2.632398,0.613916 v 2.018481 h -0.702283 v 0.614433 h 0.702283 c 0,1.215794 -0.312711,2.942274 0.310059,4.036446 1.106106,1.943516 3.884061,1.350265 4.867403,-0.350883 -0.378735,0.05098 -0.755173,0.191458 -1.141016,0.159164 -1.911138,-0.160234 -1.404048,-2.496077 -1.404048,-3.844727 h 2.632397 v -0.614433 h -2.632397 z m 21.499463,0 c -0.829867,0.23377 -2.620543,0.277662 -2.632914,1.316199 l 2.632914,-0.614433 z m -51.597885,1.404049 -0.08785,2.369364 v 5.352645 c 0.512559,-0.04186 2.335919,-0.251329 2.579687,-0.73949 0.433933,-0.869001 -0.476855,-2.522911 0.266134,-3.259232 0.37891,-0.375488 0.909554,-0.05558 0.995288,0.402042 0.210155,1.122954 0.01964,2.453456 0.01964,3.59668 0.512556,-0.04186 2.335915,-0.251329 2.579688,-0.73949 0.45341,-0.908051 -0.482141,-2.480966 0.350883,-3.259232 0.418835,-0.391196 0.931563,0.01369 1.005623,0.488859 0.173938,1.115845 0.01292,2.379802 0.01292,3.509863 0.554063,-0.04528 2.189729,-0.225022 2.541964,-0.677995 0.234384,-0.301251 0.09043,-1.06409 0.09043,-1.42782 0,-1.446755 0.134175,-2.743211 -1.140499,-3.726904 -0.813543,-0.627773 -1.986064,-0.826782 -2.983797,-0.600997 -0.355214,0.08038 -0.695402,0.338987 -1.053166,0.37207 -0.445863,0.04124 -0.950376,-0.340285 -1.404049,-0.40566 -1.372517,-0.197879 -2.859666,0.03085 -3.772896,-1.254703 z m 19.656165,0 -0.08785,2.369364 v 5.352645 c 0.512555,-0.04186 2.335915,-0.251329 2.579687,-0.73949 0.440337,-0.881989 -0.494056,-2.535644 0.335897,-3.258716 0.427171,-0.372152 0.926501,0.0144 1.013375,0.488343 0.201384,1.099436 0.02015,2.391561 0.02015,3.509863 0.554062,-0.04528 2.189732,-0.225022 2.541964,-0.677995 0.234383,-0.301251 0.09043,-1.06409 0.09043,-1.42782 0,-1.50704 0.07282,-2.886969 -1.316198,-3.842143 -1.645161,-1.131289 -3.716141,-0.136962 -5.177462,-1.774051 z m 22.288562,0 -0.08733,2.369364 v 5.352645 c 0.512556,-0.04186 2.335398,-0.251329 2.579171,-0.73949 0.44025,-0.881901 -0.382095,-2.266821 0.206189,-3.111955 0.395406,-0.568014 0.773982,-0.05075 1.251086,-0.21239 0.612857,-0.20762 1.283532,-0.942817 1.754932,-1.37666 v -0.08785 C 78.59953,21.692838 76.245484,22.695954 74.585402,21.040613 Z m 20.183265,0 c -0.413573,0.381981 -0.762053,0.769561 -1.316199,0.945678 -1.460708,0.464292 -3.050662,0.01048 -4.296379,1.101225 -1.587074,1.389541 -1.092487,3.960434 0.785999,4.768185 1.410167,0.606361 3.323394,0.292488 4.826579,0.292488 z m -10.530107,0.526582 c -0.582582,0.164095 -2.179368,0.259968 -2.54248,0.751376 -0.273523,0.370222 -0.09043,1.347833 -0.09043,1.793172 0,0.979919 -0.13433,2.14587 0.487825,2.98328 1.178328,1.586106 3.877589,1.294599 4.689637,-0.526066 -0.3467,0.07152 -0.695139,0.188735 -1.053166,0.159164 -2.222124,-0.183663 -1.491382,-3.598601 -1.491382,-5.160926 z M 47.597382,22.24519 c -0.919258,-0.0025 -1.836793,0.324289 -2.479952,0.997355 -1.279769,1.339435 -0.958277,3.629579 0.685746,4.486032 0.578278,0.301162 1.196229,0.417854 1.842782,0.419612 l -0.05323,-2.159558 -0.649056,-0.735872 3.949113,-0.08785 C 50.880245,24.558986 50.712674,23.980557 50.332096,23.49731 49.683175,22.673433 48.6392,22.248035 47.597379,22.24519 Z m 22.289596,0.0088 c -0.18967,5.31e-4 -0.379003,0.01435 -0.566374,0.04134 -2.171928,0.313009 -3.576636,2.971031 -2.072225,4.796607 0.767821,0.931655 2.251603,1.178631 3.388424,1.030945 2.044518,-0.265711 3.362787,-2.480183 2.197799,-4.362008 -0.62946,-1.016769 -1.788533,-1.5101 -2.947624,-1.506885 z m -47.10617,1.154968 c -0.168677,0.102044 -0.313264,0.219597 -0.531233,0.286805 -0.842789,0.259843 -1.647144,0.263475 -2.337842,0.345715 -0.6907,0.08224 -1.241253,0.217378 -1.738395,0.652673 -1.262178,1.105086 -0.858184,3.116603 0.627351,3.755844 1.01682,0.437559 2.544718,0.301181 3.980119,0.259415 z m 47.144927,1.153418 c 0.622733,-0.01054 0.882566,1.001827 0.182935,1.235584 -0.705518,0.2357 -1.094533,-0.907704 -0.427364,-1.18184 0.08633,-0.03547 0.167952,-0.05245 0.244429,-0.05374 z m 21.576462,0.0062 c 0.61332,3.98e-4 0.888447,0.981358 0.193269,1.231449 -0.734209,0.264132 -1.181127,-0.893976 -0.433048,-1.183907 0.08435,-0.03269 0.164459,-0.04759 0.239779,-0.04754 z m -43.900164,0.0067 c 0.181361,0 0.362747,0.108587 0.482658,0.326078 h -0.965316 c 0.119911,-0.217491 0.3013,-0.326078 0.482658,-0.326078 z m -27.47946,0.538468 c 0.631662,0.0014 1.070977,0.499362 1.176155,1.00769 0.05259,0.254165 0.03496,0.536433 -0.0956,0.800985 -0.130557,0.264552 -0.385608,0.49192 -0.691431,0.597896 -7e-4,1e-6 -0.0014,1e-6 -0.0021,0 -0.334185,0.115783 -0.70613,0.07196 -0.978752,-0.08423 -0.27262,-0.156198 -0.454174,-0.395028 -0.554488,-0.659908 -0.100315,-0.264879 -0.12328,-0.570462 -0.0155,-0.871265 0.107777,-0.300804 0.369467,-0.57495 0.700733,-0.703316 0.149717,-0.05801 0.308315,-0.08822 0.460954,-0.08785 z" /><path
       style="fill:#97bf10;fill-opacity:1;stroke:none;stroke-width:0.264582px;stroke-linecap:butt;stroke-linejoin:miter;stroke-opacity:1"
       d="m 26.51335,-31.106957 c 1.006786,-0.31844 1.352315,0.616153 1.82636,1.307067 0.829629,1.536097 1.57015,2.272352 3.787736,3.368025 2.217589,1.095674 6.630941,1.869946 9.532758,1.991282 2.901817,0.121333 5.371989,0.130813 7.568088,0.583124 2.825659,0.385335 4.658753,1.449136 6.902678,2.607305 1.763097,-0.963467 3.861899,-1.920346 5.685464,-2.368207 1.976747,-0.473784 4.046705,-0.5196 6.079093,-0.482269 1.473134,0.02705 2.965546,0.136462 4.390489,0.511147 1.772036,0.465949 3.505184,1.173182 5.066424,2.132213 1.764678,1.083999 3.402681,2.435897 4.738589,4.018454 1.140141,1.35064 2.054578,2.917782 2.702199,4.562387 0.527245,1.338914 0.712545,2.807627 0.92334,4.2170509 V 9.3301042 c -4.33545,1.4158848 -8.842189,2.2227308 -13.254239,3.3662688 -0.809914,0.08368 -1.715141,0.761705 -2.397186,0.04885 -0.02735,-7.2024075 0.05495,-14.4091231 -0.04164,-21.6088111 -0.125549,-2.4721689 -3.463265,-3.7886729 -5.164405,-1.9481599 -1.459055,1.7260449 -0.748149,4.0899809 -0.918421,6.1574716 V 8.9592862 c -1.186396,1.1371958 -2.975036,1.0365339 -4.460264,1.5595088 -3.601788,0.845519 -7.180441,1.880763 -10.796911,2.60654 -0.855585,-0.01969 -0.178644,-1.571892 -0.394254,-2.231551 -0.01009,-6.484093 0.02018,-12.9692037 -0.01518,-19.4526601 -0.205444,-3.1097699 -5.052638,-3.6526009 -6.046973,-0.776052 -0.472168,2.221154 -0.200331,4.5475497 -0.3412,6.8150574 -0.07716,4.0102445 -0.154329,8.020488 -0.231495,12.0307321 -4.814471,1.1888786 -9.617093,2.4659206 -14.43916,3.5991046 -1.237434,0.336388 -0.508012,-1.337364 -0.701886,-2.067501 v -42.14942 z"
       id="path721" /></g></svg>
