<?xml version="1.0" encoding="UTF-8" standalone="no"?>
<!-- Created with Inkscape (http://www.inkscape.org/) -->

<svg
   width="250"
   height="250"
   viewBox="0 0 66.145834 66.145835"
   version="1.1"
   id="svg24"
   xml:space="preserve"
   xmlns="http://www.w3.org/2000/svg"
   xmlns:svg="http://www.w3.org/2000/svg"><defs
     id="defs21"><filter
       style="color-interpolation-filters:sRGB"
       id="filter801"
       x="-0.052095816"
       y="-0.069629579"
       width="1.1041916"
       height="1.1392592"><feFlood
         flood-opacity="0.329412"
         flood-color="rgb(0,0,0)"
         result="flood"
         id="feFlood791" /><feComposite
         in="flood"
         in2="SourceGraphic"
         operator="in"
         result="composite1"
         id="feComposite793" /><feGaussianBlur
         in="composite1"
         stdDeviation="1"
         result="blur"
         id="feGaussianBlur795" /><feOffset
         dx="0"
         dy="0"
         result="offset"
         id="feOffset797" /><feComposite
         in="SourceGraphic"
         in2="offset"
         operator="over"
         result="composite2"
         id="feComposite799" /></filter></defs><g
     id="layer1"
     transform="translate(23.425447,65.070129)"><g
       id="g805"
       transform="matrix(0.99936842,0,0,0.99936842,-0.01479498,-0.0410968)"
       style="stroke-width:1.00063"><rect
         style="fill:#97bf10;stroke:none;stroke-width:0.26475;paint-order:markers fill stroke;stop-color:#000000;fill-opacity:1"
         id="rect725"
         width="66.187637"
         height="66.187637"
         x="-23.425447"
         y="-65.070129"
         rx="0"
         ry="0" /><path
         style="fill:#ffffff;stroke:none;stroke-width:0.26475px;stroke-linecap:butt;stroke-linejoin:miter;stroke-opacity:1;filter:url(#filter801)"
         d="m -12.805483,-50.747959 c 0.782895,-0.247625 1.051585,0.479131 1.420211,1.016399 0.645135,1.194497 1.220977,1.767022 2.945413,2.619038 1.7244368,0.852016 5.1563399,1.454103 7.4128455,1.548457 2.2565056,0.09435 4.1773566,0.101722 5.8850834,0.453448 2.1972834,0.299643 3.6227309,1.126874 5.3676481,2.027487 1.371016,-0.749209 3.003083,-1.493295 4.42112,-1.841561 1.537154,-0.368422 3.146792,-0.40405 4.727214,-0.37502 1.145535,0.02104 2.306062,0.106115 3.414124,0.397476 1.377968,0.362331 2.725693,0.912288 3.939744,1.658049 1.372245,0.842936 2.645988,1.894197 3.684814,3.124822 0.88659,1.050282 1.597676,2.26892 2.101277,3.547795 0.409994,1.041164 0.554087,2.183262 0.718007,3.279256 v 13.988949 c -3.371326,1.101018 -6.875848,1.728436 -10.306741,2.617672 -0.629801,0.06507 -1.333722,0.592316 -1.864093,0.03798 -0.02127,-5.600723 0.04273,-11.204796 -0.03238,-16.803405 -0.09763,-1.922403 -2.693098,-2.946141 -4.015935,-1.514925 -1.134588,1.342204 -0.581775,3.180445 -0.714181,4.788164 v 10.586159 c -0.922562,0.884304 -2.313441,0.806028 -3.468381,1.212702 -2.800817,0.657492 -5.5836428,1.462517 -8.3958746,2.026894 -0.6653186,-0.01531 -0.1389173,-1.222332 -0.3065794,-1.735295 -0.00784,-5.042149 0.015692,-10.085089 -0.011802,-15.126743 -0.1597569,-2.418214 -3.9290231,-2.840329 -4.70223572,-0.603472 -0.367166,1.72721 -0.1557813,3.536258 -0.2653231,5.299513 -0.059999,3.118439 -0.1200094,6.236877 -0.18001458,9.355316 -3.7438245,0.924494 -7.4784306,1.917545 -11.2281576,2.798729 -0.962251,0.261582 -0.395039,-1.039958 -0.545799,-1.607726 v -32.776157 z"
         id="path721" /></g><text
       xml:space="preserve"
       style="font-size:10.5833px;line-height:1.25;font-family:Vazir;-inkscape-font-specification:Vazir;direction:rtl;stroke-width:0.264583"
       x="99.111977"
       y="0"
       id="text5423"><tspan
         id="tspan5421"
         style="stroke-width:0.264583"
         x="99.111977"
         y="0" /></text></g></svg>
